<svg xmlns="http://www.w3.org/2000/svg" width="512" height="512" viewBox="0 0 512 512" role="img" aria-label="Payment QR">
  <rect width="512" height="512" rx="32" fill="#ffffff"/>
  <rect x="32" y="32" width="448" height="448" rx="24" fill="#0f172a"/>
  <rect x="56" y="56" width="400" height="400" rx="18" fill="#ffffff"/>

  <!-- Finder patterns -->
  <rect x="76" y="76" width="120" height="120" fill="#0f172a"/>
  <rect x="92" y="92" width="88" height="88" fill="#ffffff"/>
  <rect x="108" y="108" width="56" height="56" fill="#0f172a"/>

  <rect x="316" y="76" width="120" height="120" fill="#0f172a"/>
  <rect x="332" y="92" width="88" height="88" fill="#ffffff"/>
  <rect x="348" y="108" width="56" height="56" fill="#0f172a"/>

  <rect x="76" y="316" width="120" height="120" fill="#0f172a"/>
  <rect x="92" y="332" width="88" height="88" fill="#ffffff"/>
  <rect x="108" y="348" width="56" height="56" fill="#0f172a"/>

  <!-- Data modules (stylized, not a real QR) -->
  <g fill="#0f172a">
    <rect x="240" y="92" width="16" height="16"/>
    <rect x="264" y="92" width="16" height="16"/>
    <rect x="240" y="116" width="16" height="16"/>
    <rect x="288" y="116" width="16" height="16"/>

    <rect x="220" y="176" width="16" height="16"/>
    <rect x="244" y="176" width="16" height="16"/>
    <rect x="268" y="176" width="16" height="16"/>
    <rect x="292" y="176" width="16" height="16"/>
    <rect x="316" y="176" width="16" height="16"/>

    <rect x="220" y="200" width="16" height="16"/>
    <rect x="292" y="200" width="16" height="16"/>
    <rect x="340" y="200" width="16" height="16"/>

    <rect x="220" y="240" width="16" height="16"/>
    <rect x="244" y="240" width="16" height="16"/>
    <rect x="316" y="240" width="16" height="16"/>
    <rect x="340" y="240" width="16" height="16"/>

    <rect x="220" y="264" width="16" height="16"/>
    <rect x="268" y="264" width="16" height="16"/>
    <rect x="292" y="264" width="16" height="16"/>
    <rect x="364" y="264" width="16" height="16"/>

    <rect x="220" y="304" width="16" height="16"/>
    <rect x="244" y="304" width="16" height="16"/>
    <rect x="268" y="304" width="16" height="16"/>
    <rect x="316" y="304" width="16" height="16"/>
    <rect x="340" y="304" width="16" height="16"/>
    <rect x="364" y="304" width="16" height="16"/>

    <rect x="240" y="344" width="16" height="16"/>
    <rect x="288" y="344" width="16" height="16"/>
    <rect x="312" y="344" width="16" height="16"/>
    <rect x="360" y="344" width="16" height="16"/>

    <rect x="240" y="368" width="16" height="16"/>
    <rect x="264" y="368" width="16" height="16"/>
    <rect x="312" y="368" width="16" height="16"/>
    <rect x="336" y="368" width="16" height="16"/>
  </g>
</svg>
